<?xml version="1.0" encoding="utf-8"?>
<!-- Generator: Adobe Illustrator 23.0.1, SVG Export Plug-In . SVG Version: 6.00 Build 0)  -->
<svg version="1.1" id="layer_1" xmlns="http://www.w3.org/2000/svg" xmlns:xlink="http://www.w3.org/1999/xlink" x="0px"
	 y="0px" viewBox="0 0 171.8 50" style="enable-background:new 0 0 171.8 50;" xml:space="preserve">
<style type="text/css">
	.st0{fill:#003A77;}
</style>
<g>
	<path class="st0" d="M50,41c0,5-4,9-9,9s-9-4-9-9s4-9,9-9S50,36,50,41"/>
	<path class="st0" d="M72.4,13.3h11.1v15.5c0,9.2-7.5,16.7-16.7,16.7S50.1,38,50.1,28.8V13.3h11.1v15.5c0,3.1,2.5,5.6,5.6,5.6
		s5.6-2.5,5.6-5.6C72.4,28.8,72.4,13.3,72.4,13.3z"/>
	<rect x="88" y="13.3" class="st0" width="11.1" height="31.1"/>
	<path class="st0" d="M119.1,23.3c2.1,0,3.8,1.1,4.8,2.8l9.6-5.6c-2.9-5-8.3-8.3-14.4-8.3c-9.2,0-16.7,7.5-16.7,16.7
		s7.5,16.7,16.7,16.7c6.2,0,11.5-3.3,14.4-8.3l-9.6-5.6c-1,1.7-2.8,2.8-4.8,2.8c-3.1,0-5.5-2.5-5.5-5.6
		C113.5,25.8,116,23.3,119.1,23.3"/>
	<polygon class="st0" points="171.8,44.4 155.2,28.8 170.7,13.3 156.3,13.3 147.2,22.4 147.2,0.2 136.1,0.2 136.1,44.4 147.2,44.4 
		147.2,35.2 156.3,44.4 	"/>
	<path class="st0" d="M28.8,40.9c0-6.7,5.4-12.2,12.2-12.2c1.2,0,2.4,0.2,3.6,0.5c0.6-2.1,1-4.3,1-6.6C45.5,10.2,35.3,0,22.7,0
		C10.2,0,0,10.2,0,22.7c0,12.6,10.2,22.7,22.7,22.7c2.3,0,4.5-0.3,6.6-1C29,43.4,28.8,42.2,28.8,40.9 M11.7,22.7c0-6.1,4.9-11,11-11
		s11,4.9,11,11s-4.9,11-11,11C16.6,33.8,11.7,28.8,11.7,22.7"/>
</g>
</svg>
