<svg width="164" height="32" viewBox="0 0 164 32" fill="none" xmlns="http://www.w3.org/2000/svg">
<g clip-path="url(#clip0_70_1616)">
<path d="M38.8126 13.4033H19.5742C13.1034 13.4093 10.7946 17.5712 10.7946 20.9895V26.5187H8.86357C6.74063 26.5187 5.52924 25.4693 5.52924 23.3403V8.70765C5.52924 6.58471 6.72864 5.52924 8.86357 5.52924H21.5892V0H8.86357C3.48426 0 0 3.33433 0 8.70765V23.2864C0 28.6837 3.48426 32 8.86357 32H18.5547C23.952 32 27.4183 28.6657 27.4183 23.2864V18.2429H38.8126C39.4639 18.2498 40.0924 18.0035 40.5656 17.556C41.0388 17.1085 41.3198 16.4947 41.3493 15.8441C41.329 15.1865 41.0522 14.5631 40.5782 14.107C40.1041 13.6508 39.4704 13.3983 38.8126 13.4033ZM21.8891 23.3883C21.8891 25.5172 20.6897 26.5667 18.5547 26.5667H16.2819V21.1694C16.2819 19.8081 17.4813 18.2909 19.5742 18.2909H21.8891V23.3883Z" fill="#185AA5"/>
<path d="M60.2882 13.8651H49.8594V30.9805H54.573V18.3868H57.9133C60.8159 18.3868 60.8699 19.4663 60.8699 21.3853V30.9805H65.5895V21.3853C65.6015 17.5592 65.1577 13.8651 60.2882 13.8651ZM100.414 18.8846V14.6867H93.8714V10.9146H89.4996V14.6567H87.1367V18.8546H89.4996V25.8651C89.4996 28.1319 89.9373 31.5202 95.2507 31.5202H100.414V27.0945H95.2627C94.9052 27.1042 94.5584 26.9722 94.2978 26.7273C94.0372 26.4825 93.8839 26.1445 93.8714 25.7871V18.8846H100.414ZM125.398 20.5577C125.026 15.4963 123.533 13.961 119.401 13.7691C118.267 13.7151 118.021 13.7211 117.188 13.7211C116.354 13.7211 116.102 13.7211 114.975 13.7691C110.843 13.967 109.35 15.4903 108.978 20.5517C108.912 21.4393 108.93 21.931 108.93 22.7167C108.93 23.5023 108.93 23.994 108.978 24.8816C109.356 29.949 110.849 31.4783 114.975 31.6702C116.102 31.7241 116.348 31.7181 117.188 31.7181C118.027 31.7181 118.267 31.7181 119.401 31.6702C123.533 31.4723 125.026 29.943 125.398 24.8816C125.464 23.994 125.452 23.5023 125.452 22.7167C125.452 21.931 125.464 21.4453 125.398 20.5577ZM120.774 23.8921C120.696 27.1904 120.432 27.2444 118.123 27.4903C118.123 27.4903 117.482 27.5382 117.188 27.5382C116.894 27.5382 116.252 27.4903 116.252 27.4903C113.943 27.2444 113.679 27.1964 113.596 23.8921V21.5412C113.679 18.2429 113.943 18.1949 116.252 17.943C116.252 17.943 116.894 17.8951 117.188 17.8951C117.482 17.8951 118.123 17.943 118.123 17.943C120.432 18.1889 120.696 18.2369 120.774 21.5412V23.8921ZM84.558 24.2459V20.8996C84.558 13.8531 80.1802 13.7032 76.69 13.7032C73.1997 13.7032 68.7199 13.8351 68.7199 20.8996V24.4978C68.7199 31.5442 73.1997 31.6942 76.69 31.6942H80.4741V27.3943H75.6765C74.7949 27.3943 73.3676 27.2444 73.3676 25.4753V24.2759L84.558 24.2459ZM73.2957 20.5577C73.2957 18.051 74.621 17.8531 76.69 17.8531C78.7589 17.8531 80.0843 18.051 80.0843 20.5577H73.2957ZM138.825 13.8651H128.396V30.9805H133.134V18.3868H136.474C139.377 18.3868 139.431 19.4663 139.431 21.3853V30.9805H144.15V21.3853C144.138 17.5592 143.694 13.8651 138.825 13.8651ZM163.119 24.2459V20.8996C163.119 13.8531 158.741 13.7032 155.251 13.7032C151.76 13.7032 147.281 13.8351 147.281 20.8996V24.4978C147.281 31.5442 151.76 31.6942 155.251 31.6942H159.035V27.3943H154.237C153.356 27.3943 151.928 27.2444 151.928 25.4753V24.2759L163.119 24.2459ZM151.856 20.5577C151.856 18.051 153.182 17.8531 155.251 17.8531C157.32 17.8531 158.645 18.051 158.645 20.5577H151.856Z" fill="#231815"/>
</g>
<defs>
<clipPath id="clip0_70_1616">
<rect width="163.118" height="32" fill="white"/>
</clipPath>
</defs>
</svg>
