<svg width="357" height="25" viewBox="0 0 357 25" fill="none" xmlns="http://www.w3.org/2000/svg">
<path d="M15.0427 2.95525C12.7505 0.963664 4.05913 1.01899 0 1.2956V20.3823C0 19.5525 7.16318 18.7227 15.0427 21.2122V2.95525Z" fill="#46A6FF"/>
<path d="M15.8785 2.95525C18.1707 0.963664 26.862 1.01899 30.9211 1.2956V20.3823C30.9211 19.5525 23.758 18.7227 15.8785 21.2122V2.95525Z" fill="white"/>
<path d="M61.9286 17.3489C61.9286 18.0613 61.7182 18.7577 61.3241 19.3501C60.9299 19.9423 60.3697 20.404 59.7142 20.6766C59.0587 20.9493 58.3375 21.0206 57.6417 20.8816C56.9458 20.7426 56.3067 20.3996 55.805 19.8958C55.3034 19.3921 54.9617 18.7503 54.8233 18.0516C54.6849 17.3529 54.756 16.6287 55.0274 15.9705C55.2989 15.3124 55.7587 14.7499 56.3486 14.3541C56.9385 13.9583 57.632 13.7471 58.3415 13.7471C59.2929 13.7471 60.2052 14.1265 60.878 14.8021C61.5506 15.4775 61.9286 16.3937 61.9286 17.3489Z" fill="white"/>
<path d="M70.8186 6.31738H75.2218V12.5072C75.2218 14.2664 74.5258 15.9534 73.287 17.1973C72.0482 18.4412 70.368 19.14 68.6161 19.14C66.8642 19.14 65.184 18.4412 63.9452 17.1973C62.7064 15.9534 62.0105 14.2664 62.0105 12.5072V6.31738H66.4136V12.5072C66.4136 12.7976 66.4706 13.0852 66.5813 13.3535C66.692 13.6218 66.8542 13.8656 67.0587 14.071C67.2632 14.2763 67.5061 14.4393 67.7733 14.5504C68.0405 14.6615 68.3269 14.7188 68.6161 14.7188C68.9054 14.7188 69.1918 14.6615 69.459 14.5504C69.7262 14.4393 69.969 14.2763 70.1735 14.071C70.378 13.8656 70.5403 13.6218 70.651 13.3535C70.7617 13.0852 70.8186 12.7976 70.8186 12.5072V6.31738Z" fill="white"/>
<path d="M81.4011 6.31738H76.9961V18.697H81.4011V6.31738Z" fill="white"/>
<path d="M89.3344 10.2988C89.721 10.2984 90.1009 10.4003 90.4359 10.594C90.7708 10.7879 91.0492 11.0668 91.2428 11.4027L95.0539 9.18759C94.3268 7.92329 93.2045 6.93525 91.8611 6.37665C90.5176 5.8181 89.0282 5.72022 87.6237 6.09822C86.2193 6.47622 84.9782 7.30895 84.0931 8.46731C83.208 9.62567 82.7283 11.0449 82.7283 12.5049C82.7283 13.9649 83.208 15.3842 84.0931 16.5425C84.9782 17.7009 86.2193 18.5336 87.6237 18.9116C89.0282 19.2896 90.5176 19.1917 91.8611 18.6331C93.2045 18.0746 94.3268 17.0866 95.0539 15.8222L91.2428 13.6143C91.0495 13.95 90.7716 14.2288 90.4371 14.4226C90.1026 14.6164 89.7232 14.7183 89.3369 14.7183C88.9507 14.7182 88.5714 14.6161 88.2369 14.4221C87.9025 14.2282 87.6247 13.9493 87.4316 13.6135C87.2385 13.2776 87.1368 12.8967 87.1367 12.5089C87.1367 12.1211 87.2382 11.7401 87.4312 11.4042C87.6242 11.0683 87.9019 10.7893 88.2363 10.5953C88.5707 10.4012 88.95 10.299 89.3362 10.2988" fill="white"/>
<path d="M110.253 18.6972L103.642 12.5056L109.806 6.31761H104.09L100.476 9.94831V1.12012H96.0732V18.6972H100.476V15.0684L104.09 18.6972H110.253Z" fill="white"/>
<path d="M53.5139 17.3362C53.5144 16.5793 53.6916 15.8331 54.0311 15.1574C54.3706 14.4817 54.863 13.8952 55.469 13.4451C56.0749 12.9949 56.7775 12.6936 57.5203 12.5653C58.2631 12.4369 59.0255 12.4851 59.7465 12.706C60.3264 10.7753 60.2475 8.70558 59.5224 6.82508C58.7973 4.94461 57.4674 3.36119 55.744 2.32612C54.0204 1.29106 52.0021 0.863646 50.009 1.11173C48.0161 1.35981 46.1627 2.26917 44.7431 3.69548C43.3234 5.12179 42.4189 6.98336 42.173 8.98469C41.9272 10.986 42.354 13.0125 43.3859 14.7425C44.4177 16.4725 45.9954 17.8068 47.8687 18.5338C49.7419 19.2608 51.8032 19.3387 53.7255 18.7553C53.5855 18.2954 53.5142 17.8171 53.5139 17.3362ZM46.7432 10.0874C46.7429 9.21882 46.9991 8.3697 47.4794 7.64736C47.9598 6.92507 48.6426 6.36201 49.4417 6.02947C50.2408 5.69693 51.1201 5.60983 51.9685 5.77919C52.8169 5.94855 53.5962 6.36673 54.2079 6.98092C54.8195 7.59506 55.236 8.37756 55.4046 9.22943C55.5733 10.0813 55.4865 10.9643 55.1554 11.7667C54.8242 12.5691 54.2635 13.2547 53.5441 13.7371C52.8247 14.2194 51.9791 14.4766 51.1141 14.4763C49.9549 14.4763 48.8431 14.0138 48.0234 13.1908C47.2037 12.3677 46.7432 11.2514 46.7432 10.0874Z" fill="white"/>
<path d="M129.857 19.3498L121.777 11.0423V19.3498H118V1.03199H121.777V8.79773L128.492 1.03199H133.188L125.528 9.82972L134.788 19.3498H129.857Z" fill="white"/>
<path d="M135.872 19.3498V6.44995H139.466V7.92054C140.27 6.75095 141.521 6.16615 143.217 6.16615C144.791 6.16615 146.024 6.68215 146.916 7.71414C147.825 8.72893 148.28 10.0877 148.28 11.7905V19.3498H144.686V12.3839C144.686 11.4379 144.485 10.7069 144.083 10.1909C143.68 9.65772 143.112 9.39112 142.378 9.39112C141.503 9.39112 140.795 9.70072 140.253 10.3199C139.728 10.9391 139.466 11.8507 139.466 13.0547V19.3498H135.872Z" fill="white"/>
<path d="M162.487 17.6987C161.141 18.9886 159.514 19.6336 157.608 19.6336C155.702 19.6336 154.076 18.9886 152.729 17.6987C151.383 16.3915 150.709 14.7919 150.709 12.8999C150.709 11.0251 151.383 9.43412 152.729 8.12694C154.076 6.81975 155.702 6.16615 157.608 6.16615C159.514 6.16615 161.141 6.81975 162.487 8.12694C163.834 9.43412 164.507 11.0251 164.507 12.8999C164.507 14.7919 163.834 16.3915 162.487 17.6987ZM157.608 16.3313C158.535 16.3313 159.305 16.0131 159.917 15.3767C160.546 14.7231 160.861 13.8975 160.861 12.8999C160.861 11.9023 160.546 11.0853 159.917 10.4489C159.305 9.79532 158.535 9.46852 157.608 9.46852C156.664 9.46852 155.877 9.79532 155.247 10.4489C154.635 11.0853 154.329 11.9023 154.329 12.8999C154.329 13.8975 154.635 14.7231 155.247 15.3767C155.877 16.0131 156.664 16.3313 157.608 16.3313Z" fill="white"/>
<path d="M178.146 19.3498L175.681 12.0227L173.241 19.3498H169.674L165.319 6.44995H169.149L171.641 14.7059L174.29 6.44995H177.045L179.72 14.7059L182.186 6.44995H186.042L181.714 19.3498H178.146Z" fill="white"/>
<path d="M187.899 19.3498V0H191.493V19.3498H187.899Z" fill="white"/>
<path d="M201.056 19.6336C199.062 19.6336 197.401 19.0144 196.072 17.7761C194.76 16.5377 194.104 14.9123 194.104 12.8999C194.104 10.9735 194.76 9.37393 196.072 8.10114C197.383 6.81115 199.027 6.16615 201.003 6.16615C202.822 6.16615 204.352 6.72515 205.594 7.84314C206.835 8.94393 207.456 10.5005 207.456 12.5129C207.456 13.0805 207.438 13.4847 207.404 13.7255H197.593C197.698 14.5683 198.074 15.2305 198.721 15.7121C199.385 16.1765 200.172 16.4087 201.082 16.4087C202.621 16.4087 203.749 15.8669 204.466 14.7833L207.141 16.7441C205.795 18.6705 203.766 19.6336 201.056 19.6336ZM197.724 11.3261H203.862C203.705 10.5865 203.346 10.0275 202.787 9.64912C202.245 9.27073 201.615 9.08153 200.898 9.08153C200.164 9.08153 199.49 9.27073 198.878 9.64912C198.266 10.0275 197.882 10.5865 197.724 11.3261Z" fill="white"/>
<path d="M215.434 19.6336C213.702 19.6336 212.242 18.9714 211.053 17.6471C209.864 16.3227 209.269 14.7403 209.269 12.8999C209.269 11.0595 209.864 9.47712 211.053 8.15274C212.242 6.82835 213.702 6.16615 215.434 6.16615C216.273 6.16615 217.025 6.33815 217.689 6.68215C218.354 7.02614 218.861 7.43034 219.211 7.89474V0H222.804V19.3498H219.211V17.9051C218.861 18.3695 218.354 18.7736 217.689 19.1176C217.025 19.4616 216.273 19.6336 215.434 19.6336ZM213.781 15.4283C214.393 16.0819 215.197 16.4087 216.194 16.4087C217.191 16.4087 217.987 16.0819 218.581 15.4283C219.193 14.7747 219.499 13.9319 219.499 12.8999C219.499 11.8679 219.193 11.0251 218.581 10.3715C217.987 9.71792 217.191 9.39112 216.194 9.39112C215.197 9.39112 214.393 9.71792 213.781 10.3715C213.186 11.0251 212.889 11.8679 212.889 12.8999C212.889 13.9319 213.186 14.7747 213.781 15.4283Z" fill="white"/>
<path d="M230.049 15.0671C230.696 15.6863 231.483 15.9959 232.41 15.9959C233.337 15.9959 234.124 15.6863 234.771 15.0671C235.418 14.4479 235.741 13.6567 235.741 12.6935C235.741 11.7303 235.418 10.9391 234.771 10.3199C234.124 9.70072 233.337 9.39112 232.41 9.39112C231.483 9.39112 230.696 9.70072 230.049 10.3199C229.402 10.9391 229.079 11.7303 229.079 12.6935C229.079 13.6567 229.402 14.4479 230.049 15.0671ZM231.99 25C229.367 25 227.33 24.312 225.878 22.936L227.846 20.3044C228.948 21.3708 230.312 21.904 231.938 21.904C232.987 21.904 233.835 21.5772 234.482 20.9236C235.129 20.27 235.453 19.4186 235.453 18.3695V17.4923C235.086 17.9911 234.561 18.4039 233.879 18.7306C233.197 19.0402 232.454 19.195 231.649 19.195C229.936 19.195 228.475 18.5673 227.269 17.3117C226.062 16.0389 225.459 14.4995 225.459 12.6935C225.459 10.8703 226.062 9.33093 227.269 8.07534C228.475 6.80255 229.936 6.16615 231.649 6.16615C232.471 6.16615 233.214 6.32955 233.879 6.65635C234.561 6.96594 235.086 7.37874 235.453 7.89474V6.44995H239.047V18.3437C239.047 20.5624 238.399 22.2222 237.105 23.323C235.811 24.441 234.106 25 231.99 25Z" fill="white"/>
<path d="M248.6 19.6336C246.606 19.6336 244.945 19.0144 243.616 17.7761C242.304 16.5377 241.648 14.9123 241.648 12.8999C241.648 10.9735 242.304 9.37393 243.616 8.10114C244.927 6.81115 246.571 6.16615 248.547 6.16615C250.366 6.16615 251.896 6.72515 253.138 7.84314C254.379 8.94393 255 10.5005 255 12.5129C255 13.0805 254.983 13.4847 254.948 13.7255H245.137C245.242 14.5683 245.618 15.2305 246.265 15.7121C246.93 16.1765 247.716 16.4087 248.626 16.4087C250.165 16.4087 251.293 15.8669 252.01 14.7833L254.685 16.7441C253.339 18.6705 251.31 19.6336 248.6 19.6336ZM245.268 11.3261H251.406C251.249 10.5865 250.89 10.0275 250.331 9.64912C249.789 9.27073 249.159 9.08153 248.442 9.08153C247.708 9.08153 247.034 9.27073 246.422 9.64912C245.81 10.0275 245.426 10.5865 245.268 11.3261Z" fill="white"/>
<path d="M274.836 18.4281C275.367 18.4728 275.895 18.4952 276.419 18.4952C276.715 18.4952 276.995 18.4878 277.261 18.4728C277.52 18.4579 277.693 18.3908 277.782 18.2716C277.855 18.1747 277.892 18.0032 277.892 17.7572V13.2284H273.429L270.417 13.2732C270.299 13.2732 270.225 13.2583 270.195 13.2284C270.173 13.1986 270.162 13.1315 270.162 13.0272V11.853C270.133 11.8754 269.989 11.9537 269.73 12.0879C269.531 12.1997 269.254 12.3413 268.9 12.5128C268.471 12.7215 268.22 12.8445 268.147 12.8818V16.7061L268.191 20.7428C268.191 20.8621 268.172 20.9329 268.135 20.9553C268.106 20.9776 268.036 20.9888 267.925 20.9888H266.098C265.98 20.9888 265.909 20.9739 265.887 20.9441C265.865 20.9143 265.854 20.8472 265.854 20.7428L265.898 16.7284V13.9329L264.315 14.6262C263.923 14.7977 263.672 14.9505 263.562 15.0847C263.451 15.2188 263.322 15.2859 263.174 15.2859C263.026 15.2859 262.916 15.2002 262.842 15.0288C262.598 14.4696 262.347 13.7316 262.089 12.8147C262.753 12.688 263.454 12.483 264.193 12.1997C264.754 12.0208 265.322 11.8158 265.898 11.5847V6.88818H264.558C264.396 7.94675 264.222 8.82641 264.038 9.52716C263.949 9.89244 263.857 10.0751 263.761 10.0751C263.694 10.0751 263.521 9.99681 263.24 9.84026C262.716 9.60916 262.303 9.45634 262 9.38179C262.517 7.68956 262.834 5.69169 262.952 3.38818C262.96 3.1869 262.964 2.99308 262.964 2.80671C262.964 2.49361 262.952 2.19915 262.93 1.92332C263.676 2.01278 264.285 2.10596 264.758 2.20288C265.001 2.26251 265.123 2.35197 265.123 2.47125C265.123 2.56816 265.086 2.69116 265.012 2.84026C264.961 2.95953 264.924 3.22045 264.902 3.623L264.813 4.74121H265.898V3.45527C265.898 2.17306 265.839 1.0213 265.721 0C266.541 0.0223642 267.32 0.0745474 268.058 0.15655C268.302 0.186368 268.423 0.264643 268.423 0.391374C268.423 0.465921 268.375 0.626198 268.279 0.872204C268.191 1.08839 268.147 1.9345 268.147 3.41054V4.74121L269.985 4.69649C270.11 4.69649 270.188 4.71139 270.218 4.74121C270.24 4.76358 270.251 4.82322 270.251 4.92013V6.6869C270.251 6.81363 270.229 6.88818 270.184 6.91054L273.208 6.95527H274.858V4.67412H273.928L271.115 4.71885C270.982 4.71885 270.904 4.70394 270.882 4.67412C270.86 4.6443 270.849 4.57721 270.849 4.47284V2.84026C270.849 2.72098 270.864 2.65016 270.893 2.6278C270.923 2.60543 270.996 2.59425 271.115 2.59425L273.928 2.63898H274.858C274.836 1.43876 274.769 0.56656 274.659 0.0223642C275.338 0.0447284 276.131 0.108094 277.04 0.21246C277.276 0.234824 277.394 0.309372 277.394 0.436102C277.394 0.525559 277.35 0.678381 277.261 0.894569C277.158 1.1853 277.106 1.76677 277.106 2.63898H278.69L281.547 2.59425C281.665 2.59425 281.735 2.60916 281.758 2.63898C281.78 2.6688 281.791 2.73589 281.791 2.84026V4.47284C281.791 4.59212 281.776 4.66294 281.746 4.6853C281.724 4.70767 281.658 4.71885 281.547 4.71885L278.69 4.67412H277.106V6.95527H279.598L282.61 6.91054C282.78 6.91054 282.865 6.98509 282.865 7.13419V8.76677C282.865 8.88605 282.85 8.95687 282.821 8.97923C282.791 9.0016 282.721 9.01278 282.61 9.01278L279.598 8.96805H273.208L270.14 9.01278C270.022 9.01278 269.952 8.99787 269.93 8.96805C269.907 8.93823 269.896 8.87114 269.896 8.76677V7.13419C269.896 7.02982 269.911 6.96273 269.941 6.93291C269.919 6.93291 269.723 6.92918 269.354 6.92173C268.977 6.90682 268.575 6.89563 268.147 6.88818V10.623C269.328 10.0415 270.022 9.69489 270.229 9.58307C270.229 10.09 270.251 10.5969 270.295 11.1038H270.417L273.429 11.1486H277.892C277.87 10.2316 277.819 9.62034 277.737 9.3147C278.697 9.36688 279.469 9.44888 280.052 9.5607C280.296 9.61289 280.417 9.70607 280.417 9.84026C280.417 9.94462 280.373 10.0751 280.285 10.2316C280.189 10.3956 280.141 10.7013 280.141 11.1486L282.566 11.1038C282.684 11.1038 282.758 11.1187 282.787 11.1486C282.81 11.1784 282.821 11.2455 282.821 11.3498V13.0272C282.821 13.139 282.806 13.2098 282.776 13.2396C282.754 13.262 282.684 13.2732 282.566 13.2732C282.544 13.2732 282.44 13.2694 282.256 13.262C281.643 13.2471 280.938 13.2359 280.141 13.2284V15.5655L280.185 18.4058C280.185 19.3301 279.926 19.9787 279.41 20.3514C278.922 20.6869 277.918 20.8546 276.397 20.8546C276.036 20.8546 275.821 20.8211 275.755 20.754C275.689 20.6869 275.618 20.4856 275.545 20.1502C275.375 19.4047 275.138 18.8307 274.836 18.4281ZM272.776 13.9665C272.894 13.8994 272.983 13.8658 273.042 13.8658C273.101 13.8658 273.171 13.9068 273.252 13.9888C273.902 14.6076 274.633 15.4947 275.445 16.6502C275.504 16.7322 275.533 16.7955 275.533 16.8403C275.533 16.8924 275.46 16.9744 275.312 17.0863L273.95 18.0703C273.817 18.1597 273.728 18.2045 273.684 18.2045C273.625 18.2045 273.57 18.1448 273.518 18.0256C272.912 16.9521 272.218 15.9979 271.436 15.1629C271.369 15.0735 271.336 15.0064 271.336 14.9617C271.336 14.9095 271.406 14.8387 271.547 14.7492L272.776 13.9665Z" fill="white"/>
<path d="M305.768 18.5958C305.362 19.1102 305.037 19.647 304.793 20.2061C304.601 20.6161 304.45 20.8211 304.339 20.8211C304.28 20.8211 304.107 20.7689 303.819 20.6645C302.002 19.9414 300.467 19.0543 299.211 18.0032C297.882 19.1289 296.339 20.0532 294.582 20.7764C294.353 20.8807 294.18 20.9329 294.062 20.9329C293.936 20.9329 293.777 20.7428 293.585 20.3626C293.275 19.7811 292.921 19.3301 292.522 19.0096C292.53 19.3898 292.541 19.7215 292.555 20.0048C292.563 20.1986 292.567 20.303 292.567 20.3179C292.567 20.4372 292.552 20.508 292.522 20.5304C292.493 20.5527 292.426 20.5639 292.323 20.5639H290.717C290.592 20.5639 290.518 20.549 290.496 20.5192C290.473 20.4893 290.462 20.4223 290.462 20.3179V19.5575H288.004V20.7428C288.004 20.8695 287.989 20.9441 287.959 20.9665C287.93 20.9888 287.86 21 287.749 21H286.143C286.01 21 285.929 20.9851 285.9 20.9553C285.877 20.9255 285.866 20.8546 285.866 20.7428L285.922 17.2875V15.8227L285.866 13.6757C285.866 13.549 285.885 13.4744 285.922 13.4521C285.951 13.4297 286.025 13.4185 286.143 13.4185L288.214 13.4633H290.23L292.323 13.4185C292.441 13.4185 292.511 13.4334 292.533 13.4633C292.555 13.4931 292.567 13.5639 292.567 13.6757L292.522 15.4313V18.9872C294.412 18.4207 296.099 17.5634 297.583 16.4153C296.402 15.0437 295.509 13.4558 294.903 11.6518L293.884 11.6741C293.766 11.6741 293.693 11.6555 293.663 11.6182C293.641 11.5884 293.63 11.5176 293.63 11.4058V9.79553C293.63 9.64643 293.715 9.57189 293.884 9.57189L296.653 9.61661H301.936C302.113 9.61661 302.279 9.58679 302.434 9.52716C302.589 9.45261 302.704 9.41534 302.778 9.41534C302.925 9.41534 303.209 9.6278 303.63 10.0527C304.103 10.5447 304.339 10.8653 304.339 11.0144C304.339 11.1858 304.254 11.3237 304.084 11.4281C303.885 11.5548 303.704 11.7897 303.542 12.1326C302.87 13.6757 301.973 15.0958 300.851 16.393C302.216 17.3621 303.856 18.0964 305.768 18.5958ZM301.327 11.6294H297.129C297.646 12.9116 298.333 14.0186 299.189 14.9505C300.097 13.9665 300.81 12.8594 301.327 11.6294ZM290.462 15.3642H288.004V17.6565H290.462V15.3642ZM293.01 7.63738C293.866 7.04846 294.475 6.35517 294.837 5.55751C295.191 4.78222 295.368 3.8131 295.368 2.65016L295.324 0.950479C295.324 0.831203 295.343 0.760383 295.38 0.738019C295.409 0.715655 295.483 0.704473 295.601 0.704473L297.595 0.749201H299.865L301.903 0.704473C302.028 0.704473 302.102 0.719382 302.124 0.749201C302.146 0.77902 302.157 0.846113 302.157 0.950479L302.113 2.80671V5.1885C302.113 5.59851 302.165 5.85942 302.268 5.97125C302.364 6.0607 302.578 6.10543 302.91 6.10543C303.176 6.10543 303.379 5.99734 303.52 5.78115C303.63 5.60224 303.704 4.9164 303.741 3.72364C304.155 3.9771 304.601 4.18211 305.081 4.33866C305.325 4.42066 305.476 4.49148 305.535 4.55112C305.587 4.61076 305.613 4.71885 305.613 4.8754C305.613 4.91267 305.609 5.00958 305.602 5.16613C305.543 6.39617 305.269 7.21246 304.782 7.61502C304.413 7.96539 303.645 8.14058 302.479 8.14058C301.526 8.14058 300.88 8.03248 300.54 7.81629C300.134 7.54792 299.931 7.02236 299.931 6.23962V2.8738H297.572C297.55 4.34239 297.318 5.57614 296.875 6.57508C296.528 7.35783 296.018 8.06975 295.346 8.71086C295.103 8.95687 294.922 9.07987 294.804 9.07987C294.686 9.07987 294.505 8.9345 294.261 8.64377C293.87 8.19649 293.453 7.86102 293.01 7.63738ZM287.649 4.00319H290.595L293.021 3.95847C293.139 3.95847 293.213 3.97338 293.242 4.00319C293.264 4.03301 293.275 4.10011 293.275 4.20447V5.83706C293.275 5.96379 293.257 6.04207 293.22 6.07189C293.198 6.09425 293.131 6.10543 293.021 6.10543L290.595 6.0607H287.649L285.246 6.10543C285.121 6.10543 285.047 6.08679 285.025 6.04952C285.002 6.0197 284.991 5.94888 284.991 5.83706V4.20447C284.991 4.0852 285.006 4.01438 285.036 3.99201C285.065 3.96965 285.135 3.95847 285.246 3.95847L287.649 4.00319ZM288.258 0.872204H290.318L292.367 0.827476C292.493 0.827476 292.57 0.842386 292.6 0.872204C292.622 0.902023 292.633 0.969116 292.633 1.07348V2.60543C292.633 2.73216 292.618 2.80671 292.589 2.82907C292.559 2.85144 292.485 2.86262 292.367 2.86262L290.318 2.81789H288.258L286.199 2.86262C286.073 2.86262 285.999 2.84771 285.977 2.81789C285.955 2.78807 285.944 2.71725 285.944 2.60543V1.07348C285.944 0.954207 285.959 0.883387 285.988 0.861022C286.018 0.838658 286.088 0.827476 286.199 0.827476L288.258 0.872204ZM288.347 7.27955H290.141L292.046 7.23482C292.179 7.23482 292.256 7.24973 292.279 7.27955C292.308 7.30192 292.323 7.36528 292.323 7.46965V8.95687C292.323 9.07614 292.304 9.14697 292.268 9.16933C292.238 9.19169 292.164 9.20288 292.046 9.20288L290.141 9.15815H288.347L286.42 9.20288C286.302 9.20288 286.228 9.18797 286.199 9.15815C286.176 9.12833 286.165 9.06124 286.165 8.95687V7.46965C286.165 7.3131 286.25 7.23482 286.42 7.23482L288.347 7.27955ZM288.347 10.3546H290.141L292.046 10.2987C292.179 10.2987 292.256 10.3136 292.279 10.3435C292.308 10.3733 292.323 10.4441 292.323 10.5559V12.0208C292.323 12.1475 292.304 12.222 292.268 12.2444C292.238 12.2668 292.164 12.278 292.046 12.278L290.141 12.2332H288.347L286.42 12.278C286.302 12.278 286.228 12.263 286.199 12.2332C286.176 12.2034 286.165 12.1326 286.165 12.0208V10.5559C286.165 10.4366 286.184 10.3621 286.221 10.3323C286.243 10.3099 286.309 10.2987 286.42 10.2987L288.347 10.3546Z" fill="white"/>
<path d="M318.382 7.34665H313.476V13.2396H311.073V7.34665H307.606V5.17732H311.073V0.894569H313.476V5.17732H318.382V0.894569H320.785V5.17732H324.396V7.34665H320.785V8.78914C320.785 12.5463 319.973 15.312 318.349 17.0863C317.042 18.5101 314.941 19.5761 312.047 20.2843L310.641 18.4393C313.631 17.746 315.676 16.6912 316.776 15.2748C317.847 13.8882 318.382 11.7897 318.382 8.97923V7.34665Z" fill="white"/>
<path d="M333.599 8.78914C331.819 10.1086 329.878 11.3461 327.773 12.5016L326.345 10.5112C329.069 9.13206 331.498 7.5442 333.632 5.7476C335.611 4.07029 337.165 2.34452 338.295 0.570288L340.631 2.01278C339.17 3.80192 337.674 5.36741 336.146 6.70927V20.1502H333.599V8.78914Z" fill="white"/>
<path d="M348.306 7.53674C351.518 8.40895 354.416 9.59052 357 11.0815L355.726 13.508C353.622 12.0543 351.149 10.8802 348.306 9.98562V20.1278H345.77V0.827476H348.306V7.53674Z" fill="white"/>
</svg>
